<?xml version="1.0" encoding="utf-8"?>
<!-- Generator: Adobe Illustrator 15.0.0, SVG Export Plug-In . SVG Version: 6.00 Build 0)  -->
<!DOCTYPE svg PUBLIC "-//W3C//DTD SVG 1.0//EN" "http://www.w3.org/TR/2001/REC-SVG-20010904/DTD/svg10.dtd">
<svg version="1.0" id="Layer_1" xmlns="http://www.w3.org/2000/svg" xmlns:xlink="http://www.w3.org/1999/xlink" x="0px" y="0px"
	 width="194.991px" height="85.496px" viewBox="0 0 194.991 85.496" enable-background="new 0 0 194.991 85.496"
	 xml:space="preserve">
<g>
	<path opacity="0.57" fill="#FFFFFF" d="M25.038,14.385v57.671h-3.6V14.385H25.038z"/>
	<path opacity="0.57" fill="#FFFFFF" d="M64.997,30.729v41.256h-3.6v-4.68v-2.521c-0.96,1.441-2.256,2.881-3.888,4.32
		c-3.36,2.928-7.176,4.393-11.448,4.393c-5.184,0-9.432-2.16-12.744-6.48c-3.024-3.982-4.536-8.664-4.536-14.039
		c0-1.393,0.119-2.809,0.36-4.248c0.959-5.951,3.528-10.752,7.704-14.4c3.888-3.456,8.568-4.992,14.04-4.608
		C54.676,29.77,59.381,30.106,64.997,30.729z M61.397,52.402V33.897c-6.192-0.479-9.96-0.72-11.304-0.72
		c-4.176-0.288-7.945,1.057-11.304,4.032c-1.969,1.728-3.528,4.152-4.68,7.272c-1.057,2.832-1.584,5.713-1.584,8.64
		c0,3.647,0.767,6.792,2.304,9.433c2.88,4.848,6.527,7.271,10.944,7.271c3.503,0,6.815-1.344,9.936-4.031
		C59.453,62.482,61.349,58.017,61.397,52.402z"/>
	<path opacity="0.57" fill="#FFFFFF" d="M105.893,49.521v22.465h-3.744V49.521c0-4.559-0.72-8.039-2.16-10.439
		c-1.105-1.968-2.329-3.384-3.672-4.248c-1.344-0.864-3.312-1.512-5.904-1.944c-0.529-0.095-1.056-0.144-1.584-0.144
		c-3.504,0-6.816,1.368-9.936,4.104c-3.792,3.361-5.688,7.488-5.688,12.385v22.752h-3.6V30.369h3.6v7.416
		c1.775-2.592,4.02-4.68,6.732-6.264c2.711-1.584,5.58-2.376,8.604-2.376c0.864,0,1.704,0.048,2.52,0.144
		c3.215,0.528,5.712,1.356,7.488,2.484c1.775,1.128,3.359,2.869,4.752,5.22C105.029,39.97,105.893,44.146,105.893,49.521z"/>
	<path opacity="0.57" fill="#FFFFFF" d="M126.772,69.394v3.096c-2.833,0-4.656-0.049-5.472-0.145
		c-2.256-0.24-3.913-0.814-4.968-1.729c-1.728-1.486-2.808-3.91-3.24-7.271c-0.144-1.344-0.264-5.086-0.36-11.232
		c-0.097-6.047-0.097-12.096,0-18.144h-6.048v-3.6h6.048v-6.984h3.6v6.984h9.288v3.6h-9.288c-0.097,5.952-0.097,11.929,0,17.929
		c0.047,5.568,0.119,8.809,0.216,9.719c0.335,3.168,1.176,5.354,2.52,6.553C120.172,69.082,122.74,69.49,126.772,69.394z"/>
	<path opacity="0.57" fill="#FFFFFF" d="M142.755,30.297v3.672c-1.92,0.673-3.672,1.681-5.256,3.024
		c-3.168,2.785-5.184,6.84-6.048,12.168c-0.288,1.728-0.432,2.808-0.432,3.24v19.584h-3.6V30.297h3.6v9.288
		c1.248-2.112,2.736-3.936,4.464-5.472C137.546,32.338,139.971,31.066,142.755,30.297z"/>
	<path opacity="0.57" fill="#FFFFFF" d="M178.323,30.729v41.256h-3.6v-4.68v-2.521c-0.96,1.441-2.256,2.881-3.888,4.32
		c-3.36,2.928-7.176,4.393-11.448,4.393c-5.184,0-9.432-2.16-12.744-6.48c-3.024-3.982-4.536-8.664-4.536-14.039
		c0-1.393,0.119-2.809,0.36-4.248c0.959-5.951,3.528-10.752,7.704-14.4c3.888-3.456,8.568-4.992,14.04-4.608
		C168.002,29.77,172.707,30.106,178.323,30.729z M174.723,52.402V33.897c-6.192-0.479-9.96-0.72-11.304-0.72
		c-4.176-0.288-7.945,1.057-11.304,4.032c-1.969,1.728-3.528,4.152-4.68,7.272c-1.057,2.832-1.584,5.713-1.584,8.64
		c0,3.647,0.767,6.792,2.304,9.433c2.88,4.848,6.527,7.271,10.944,7.271c3.503,0,6.815-1.344,9.936-4.031
		C172.779,62.482,174.674,58.017,174.723,52.402z"/>
</g>
</svg>
